# xmcd CD database file generated by OrangeCD 5.2
#
# Track frame offsets:
#	150
#	15240
#	29170
#	42535
#	54590
#	72230
#	85152
#	103552
#	118162
#	132932
#
# Disc length: 1921 seconds
#
# Revision: 2
# Processed by: cddbd v1.5.1PL0 Copyright (c) Steve Scherf et al.
# Submitted via: OrangeCD 5.2
#
DISCID=87077f0a
DTITLE=Asleep at the Wheel - Western Standard Time
DYEAR=1988
DGENRE=Country
TTITLE0=Chattanooga Choo Choo
TTITLE1=Don't Let Go
TTITLE2=Hot Rod Lincoln
TTITLE3=That's What I Like 'Bout the South
TTITLE4=That Lucky Old Sun (Just Rolls Around Heaven All Day)
TTITLE5=Walk On By
TTITLE6=San Antonio Rose
TTITLE7=Roly Poly
TTITLE8=Sugarfoot Rag
TTITLE9=Walking the Floor Over You
EXTD=
EXTT0=
EXTT1=
EXTT2=
EXTT3=
EXTT4=
EXTT5=
EXTT6=
EXTT7=
EXTT8=
EXTT9=
PLAYORDER=
